<svg width="21" height="21" viewBox="0 0 21 21" fill="none" xmlns="http://www.w3.org/2000/svg">
<path d="M0.583008 20.8463V12.9681L4.52211 11.2201V8.04422L9.44599 5.58228V4.10512H7.47644V2.13557H9.44599V0.166016H11.4155V2.13557H13.3851V4.10512H11.4155V5.58228L16.3394 8.04422V11.2201L20.2785 12.9681V20.8463H11.4155V16.9072C11.4155 16.6282 11.3212 16.3943 11.1324 16.2055C10.9437 16.0168 10.7098 15.9224 10.4308 15.9224C10.1517 15.9224 9.91786 16.0168 9.72911 16.2055C9.54036 16.3943 9.44599 16.6282 9.44599 16.9072V20.8463H0.583008ZM2.55256 18.8767H7.47644V16.858C7.47644 16.0209 7.76366 15.311 8.33811 14.7284C8.91257 14.1457 9.61012 13.8544 10.4308 13.8544C11.2514 13.8544 11.949 14.1457 12.5234 14.7284C13.0979 15.311 13.3851 16.0209 13.3851 16.858V18.8767H18.309V14.1498L14.3699 12.3772V9.07823L10.4308 7.05944L6.49166 9.07823V12.3772L2.55256 14.1498V18.8767ZM10.4308 12.4757C10.8411 12.4757 11.1899 12.3321 11.4771 12.0449C11.7643 11.7576 11.9079 11.4089 11.9079 10.9985C11.9079 10.5882 11.7643 10.2394 11.4771 9.95222C11.1899 9.665 10.8411 9.52138 10.4308 9.52138C10.0204 9.52138 9.67166 9.665 9.38444 9.95222C9.09721 10.2394 8.9536 10.5882 8.9536 10.9985C8.9536 11.4089 9.09721 11.7576 9.38444 12.0449C9.67166 12.3321 10.0204 12.4757 10.4308 12.4757Z" fill="#1C1B1F"/>
</svg>
