<svg width="25" height="24" viewBox="0 0 25 24" fill="none" xmlns="http://www.w3.org/2000/svg">
<mask id="mask0_253_6206" style="mask-type:alpha" maskUnits="userSpaceOnUse" x="0" y="0" width="25" height="24">
<rect x="0.613403" y="0.181641" width="23.6346" height="23.6346" fill="#D9D9D9"/>
</mask>
<g mask="url(#mask0_253_6206)">
<path d="M4.55247 21.8463V12.8356C3.699 12.6222 2.99324 12.1709 2.4352 11.4815C1.87716 10.7922 1.59814 9.98796 1.59814 9.06884H3.5677C3.5677 9.59405 3.76055 10.0495 4.14625 10.4352C4.53196 10.8209 4.98741 11.0138 5.51263 11.0138H6.52202V8.8965C5.66855 8.68313 4.96279 8.23178 4.40475 7.54244C3.84672 6.85309 3.5677 6.04886 3.5677 5.12974H5.53725C5.53725 5.65495 5.7301 6.11041 6.1158 6.49611C6.50151 6.88182 6.95696 7.07467 7.48218 7.07467H7.99919L12.4307 1.16602L16.8622 7.07467H17.3792C17.9044 7.07467 18.3598 6.88182 18.7455 6.49611C19.1313 6.11041 19.3241 5.65495 19.3241 5.12974H21.2937C21.2937 6.04886 21.0146 6.85309 20.4566 7.54244C19.8986 8.23178 19.1928 8.68313 18.3393 8.8965V11.0138H19.3487C19.8739 11.0138 20.3294 10.8209 20.7151 10.4352C21.1008 10.0495 21.2937 9.59405 21.2937 9.06884H23.2632C23.2632 9.98796 22.9842 10.7922 22.4261 11.4815C21.8681 12.1709 21.1624 12.6222 20.3089 12.8356V21.8463H13.4155V17.9072C13.4155 17.6282 13.3211 17.3943 13.1323 17.2055C12.9436 17.0168 12.7097 16.9224 12.4307 16.9224C12.1517 16.9224 11.9178 17.0168 11.729 17.2055C11.5403 17.3943 11.4459 17.6282 11.4459 17.9072V21.8463H4.55247ZM10.4611 7.07467H14.4002L12.4307 4.44039L10.4611 7.07467ZM8.49157 11.0138H16.3698V9.04422H8.49157V11.0138ZM6.52202 19.8767H9.47635V17.9072C9.47635 17.0866 9.76357 16.389 10.338 15.8146C10.9125 15.2401 11.61 14.9529 12.4307 14.9529C13.2513 14.9529 13.9489 15.2401 14.5233 15.8146C15.0978 16.389 15.385 17.0866 15.385 17.9072V19.8767H18.3393V12.9833H6.52202V19.8767Z" fill="#1C1B1F"/>
</g>
</svg>
