<svg width="25" height="24" viewBox="0 0 25 24" fill="none" xmlns="http://www.w3.org/2000/svg">
<mask id="mask0_253_6167" style="mask-type:alpha" maskUnits="userSpaceOnUse" x="0" y="0" width="25" height="24">
<rect x="0.613403" y="0.181641" width="23.6346" height="23.6346" fill="#D9D9D9"/>
</mask>
<g mask="url(#mask0_253_6167)">
<path d="M1.59818 20.8615V8.77341C1.30275 8.59286 1.06476 8.35898 0.884217 8.07175C0.703674 7.78453 0.613403 7.45217 0.613403 7.07467C0.613403 6.69717 0.810358 6.23761 1.20427 5.69598C1.59818 5.15436 2.05774 4.62914 2.58295 4.12034C3.10817 4.62914 3.56773 5.15436 3.96164 5.69598C4.35555 6.23761 4.55251 6.69717 4.55251 7.07467C4.55251 7.45217 4.46223 7.78453 4.28169 8.07175C4.10115 8.35898 3.86316 8.59286 3.56773 8.77341V12.9833H5.53728V11.0138C5.53728 10.6034 5.66858 10.2095 5.93119 9.83204C6.1938 9.45454 6.5713 9.20835 7.06368 9.09346C6.88314 8.81444 6.74773 8.5108 6.65746 8.18254C6.56719 7.85428 6.52206 7.51782 6.52206 7.17315C6.52206 6.51663 6.67798 5.90935 6.98982 5.35131C7.30167 4.79327 7.7202 4.33371 8.24541 3.97263L12.4307 1.16602L16.616 3.97263C17.1412 4.33371 17.5597 4.79327 17.8716 5.35131C18.1834 5.90935 18.3394 6.51663 18.3394 7.17315C18.3394 7.51782 18.2942 7.85428 18.204 8.18254C18.1137 8.5108 17.9783 8.81444 17.7977 9.09346C18.2901 9.20835 18.6676 9.45454 18.9302 9.83204C19.1928 10.2095 19.3241 10.6034 19.3241 11.0138V12.9833H21.2937V8.77341C20.9983 8.59286 20.7603 8.35898 20.5797 8.07175C20.3992 7.78453 20.3089 7.45217 20.3089 7.07467C20.3089 6.69717 20.5059 6.23761 20.8998 5.69598C21.2937 5.15436 21.7533 4.62914 22.2785 4.12034C22.8037 4.62914 23.2632 5.15436 23.6571 5.69598C24.0511 6.23761 24.248 6.69717 24.248 7.07467C24.248 7.45217 24.1577 7.78453 23.9772 8.07175C23.7967 8.35898 23.5587 8.59286 23.2632 8.77341V20.8615H13.4155V16.9224C13.4155 16.6434 13.3211 16.4095 13.1324 16.2208C12.9436 16.032 12.7097 15.9376 12.4307 15.9376C12.1517 15.9376 11.9178 16.032 11.7291 16.2208C11.5403 16.4095 11.4459 16.6434 11.4459 16.9224V20.8615H1.59818ZM10.3627 9.04422H14.4987C15.024 9.04422 15.4671 8.86368 15.8282 8.50259C16.1893 8.14151 16.3698 7.69836 16.3698 7.17315C16.3698 6.84489 16.296 6.54535 16.1482 6.27454C16.0005 6.00373 15.7954 5.77805 15.5328 5.59751L12.4307 3.52948L9.32867 5.59751C9.06606 5.77805 8.8609 6.00373 8.71318 6.27454C8.56547 6.54535 8.49161 6.84489 8.49161 7.17315C8.49161 7.69836 8.67215 8.14151 9.03323 8.50259C9.39432 8.86368 9.83747 9.04422 10.3627 9.04422ZM3.56773 18.892H9.47638V16.9224C9.47638 16.1018 9.76361 15.4042 10.3381 14.8298C10.9125 14.2553 11.6101 13.9681 12.4307 13.9681C13.2514 13.9681 13.9489 14.2553 14.5234 14.8298C15.0978 15.4042 15.385 16.1018 15.385 16.9224V18.892H21.2937V14.9529H17.3546V11.0138H7.50683V14.9529H3.56773V18.892Z" fill="#1C1B1F"/>
</g>
</svg>
