<svg width="25" height="24" viewBox="0 0 25 24" fill="none" xmlns="http://www.w3.org/2000/svg">
<mask id="mask0_253_6147" style="mask-type:alpha" maskUnits="userSpaceOnUse" x="0" y="0" width="25" height="24">
<rect x="0.613403" y="0.181641" width="23.6346" height="23.6346" fill="#D9D9D9"/>
</mask>
<g mask="url(#mask0_253_6147)">
<path d="M2.58295 21.8483V11.0157H4.5525V12.9853H6.52205L9.45176 3.26062V1.16797H11.4213V3.13752H13.4155V1.16797H15.385V3.13752L18.3394 12.9853H20.3089V11.0157H22.2785V21.8483H13.4155V16.9244H11.4459V21.8483H2.58295ZM9.18094 11.0157H15.6805L15.0896 9.04617H9.77181L9.18094 11.0157ZM10.3627 7.07662H14.4987L13.9079 5.10707H10.9535L10.3627 7.07662ZM4.5525 19.8787H9.47637V14.9548H15.385V19.8787H20.3089V14.9548H16.8622L16.2713 12.9853H8.59008L7.99921 14.9548H4.5525V19.8787Z" fill="#212121"/>
</g>
</svg>
