<svg width="34" height="34" viewBox="0 0 34 34" fill="none" xmlns="http://www.w3.org/2000/svg">
<path d="M11.05 2.83398H22.95C27.4834 2.83398 31.1667 6.51732 31.1667 11.0507V22.9507C31.1667 25.1298 30.301 27.2198 28.7601 28.7607C27.2192 30.3016 25.1292 31.1673 22.95 31.1673H11.05C6.51671 31.1673 2.83337 27.484 2.83337 22.9507V11.0507C2.83337 8.87146 3.69906 6.78151 5.23998 5.24059C6.7809 3.69967 8.87085 2.83398 11.05 2.83398ZM10.7667 5.66732C9.4141 5.66732 8.1169 6.20464 7.16046 7.16107C6.20403 8.11751 5.66671 9.41471 5.66671 10.7673V23.234C5.66671 26.0532 7.94754 28.334 10.7667 28.334H23.2334C24.586 28.334 25.8832 27.7967 26.8396 26.8402C27.7961 25.8838 28.3334 24.5866 28.3334 23.234V10.7673C28.3334 7.94815 26.0525 5.66732 23.2334 5.66732H10.7667ZM24.4375 7.79232C24.9072 7.79232 25.3576 7.97889 25.6897 8.31098C26.0218 8.64308 26.2084 9.0935 26.2084 9.56315C26.2084 10.0328 26.0218 10.4832 25.6897 10.8153C25.3576 11.1474 24.9072 11.334 24.4375 11.334C23.9679 11.334 23.5175 11.1474 23.1854 10.8153C22.8533 10.4832 22.6667 10.0328 22.6667 9.56315C22.6667 9.0935 22.8533 8.64308 23.1854 8.31098C23.5175 7.97889 23.9679 7.79232 24.4375 7.79232ZM17 9.91732C18.8787 9.91732 20.6803 10.6636 22.0087 11.992C23.3371 13.3204 24.0834 15.122 24.0834 17.0007C24.0834 18.8793 23.3371 20.6809 22.0087 22.0093C20.6803 23.3377 18.8787 24.084 17 24.084C15.1214 24.084 13.3198 23.3377 11.9914 22.0093C10.663 20.6809 9.91671 18.8793 9.91671 17.0007C9.91671 15.122 10.663 13.3204 11.9914 11.992C13.3198 10.6636 15.1214 9.91732 17 9.91732ZM17 12.7507C15.8729 12.7507 14.7919 13.1984 13.9948 13.9954C13.1978 14.7925 12.75 15.8735 12.75 17.0007C12.75 18.1278 13.1978 19.2088 13.9948 20.0059C14.7919 20.8029 15.8729 21.2507 17 21.2507C18.1272 21.2507 19.2082 20.8029 20.0052 20.0059C20.8023 19.2088 21.25 18.1278 21.25 17.0007C21.25 15.8735 20.8023 14.7925 20.0052 13.9954C19.2082 13.1984 18.1272 12.7507 17 12.7507Z" fill="#C09680"/>
</svg>
