<svg width="23" height="24" viewBox="0 0 23 24" fill="none" xmlns="http://www.w3.org/2000/svg">
<mask id="mask0_261_6113" style="mask-type:alpha" maskUnits="userSpaceOnUse" x="0" y="0" width="23" height="24">
<rect x="0.356171" y="0.546875" width="22.4658" height="22.4658" fill="#D9D9D9"/>
</mask>
<g mask="url(#mask0_261_6113)">
<path d="M11.589 11.7807C12.1039 11.7807 12.5446 11.5973 12.9113 11.2307C13.2779 10.8641 13.4612 10.4233 13.4612 9.90851C13.4612 9.39367 13.2779 8.95293 12.9113 8.5863C12.5446 8.21968 12.1039 8.03636 11.589 8.03636C11.0742 8.03636 10.6335 8.21968 10.2668 8.5863C9.90022 8.95293 9.7169 9.39367 9.7169 9.90851C9.7169 10.4233 9.90022 10.8641 10.2668 11.2307C10.6335 11.5973 11.0742 11.7807 11.589 11.7807ZM11.589 18.6608C13.4924 16.9135 14.9043 15.326 15.8248 13.8985C16.7453 12.471 17.2055 11.2034 17.2055 10.0957C17.2055 8.39519 16.6633 7.00278 15.5791 5.9185C14.4948 4.83421 13.1648 4.29207 11.589 4.29207C10.0133 4.29207 8.68332 4.83421 7.59904 5.9185C6.51475 7.00278 5.97261 8.39519 5.97261 10.0957C5.97261 11.2034 6.43285 12.471 7.35332 13.8985C8.27379 15.326 9.6857 16.9135 11.589 18.6608ZM11.589 21.1414C9.07725 19.004 7.20121 17.0188 5.96091 15.1856C4.72061 13.3525 4.10046 11.6558 4.10046 10.0957C4.10046 7.75554 4.85322 5.89119 6.35874 4.50268C7.86426 3.11418 9.60769 2.41992 11.589 2.41992C13.5704 2.41992 15.3138 3.11418 16.8194 4.50268C18.3249 5.89119 19.0776 7.75554 19.0776 10.0957C19.0776 11.6558 18.4575 13.3525 17.2172 15.1856C15.9769 17.0188 14.1008 19.004 11.589 21.1414Z" fill="white"/>
</g>
</svg>
