<svg width="45" height="45" viewBox="0 0 45 45" fill="none" xmlns="http://www.w3.org/2000/svg">
<mask id="mask0_261_6067" style="mask-type:alpha" maskUnits="userSpaceOnUse" x="0" y="0" width="45" height="45">
<rect width="45" height="45" fill="#D9D9D9"/>
</mask>
<g mask="url(#mask0_261_6067)">
<path d="M16.5938 31.5469L22.5 27.9844L28.4063 31.5938L26.8594 24.8438L32.0625 20.3438L25.2188 19.7344L22.5 13.3594L19.7812 19.6875L12.9375 20.2969L18.1406 24.8438L16.5938 31.5469ZM10.9219 39.375L13.9688 26.2031L3.75 17.3438L17.25 16.1719L22.5 3.75L27.75 16.1719L41.25 17.3438L31.0312 26.2031L34.0781 39.375L22.5 32.3906L10.9219 39.375ZM32.3438 13.125L33.3281 8.95312L30 6.1875L34.4062 5.8125L36.0938 1.875L37.7812 5.8125L42.1875 6.1875L38.8594 8.95312L39.8438 13.125L36.0938 10.9219L32.3438 13.125Z" fill="#D3AA94"/>
</g>
</svg>
