<svg width="23" height="24" viewBox="0 0 23 24" fill="none" xmlns="http://www.w3.org/2000/svg">
<mask id="mask0_261_6215" style="mask-type:alpha" maskUnits="userSpaceOnUse" x="0" y="0" width="23" height="24">
<rect x="0.356201" y="0.546875" width="22.4658" height="22.4658" fill="#D9D9D9"/>
</mask>
<g mask="url(#mask0_261_6215)">
<path d="M10.2786 15.5244C10.2786 14.2607 10.3918 13.3519 10.618 12.7981C10.8442 12.2443 11.3239 11.6397 12.0572 10.9845C12.6968 10.4228 13.1844 9.93528 13.5198 9.52185C13.8552 9.10842 14.0229 8.63648 14.0229 8.10604C14.0229 7.46639 13.8084 6.93595 13.3794 6.51472C12.9504 6.09348 12.3536 5.88287 11.5891 5.88287C10.7935 5.88287 10.1889 6.12469 9.77551 6.60832C9.36207 7.09196 9.06955 7.5834 8.89794 8.08264L6.48755 7.05296C6.81517 6.05448 7.41582 5.18861 8.28949 4.45535C9.16316 3.7221 10.263 3.35547 11.5891 3.35547C13.2273 3.35547 14.4871 3.8118 15.3685 4.72448C16.25 5.63715 16.6907 6.73313 16.6907 8.01243C16.6907 8.79249 16.523 9.45945 16.1876 10.0133C15.8522 10.5671 15.3256 11.1951 14.608 11.8971C13.8435 12.6304 13.3794 13.1881 13.2156 13.5704C13.0518 13.9526 12.9699 14.6039 12.9699 15.5244H10.2786ZM11.5891 21.1409C11.0743 21.1409 10.6336 20.9575 10.2669 20.5909C9.90032 20.2243 9.717 19.7836 9.717 19.2687C9.717 18.7539 9.90032 18.3131 10.2669 17.9465C10.6336 17.5799 11.0743 17.3966 11.5891 17.3966C12.104 17.3966 12.5447 17.5799 12.9114 17.9465C13.278 18.3131 13.4613 18.7539 13.4613 19.2687C13.4613 19.7836 13.278 20.2243 12.9114 20.5909C12.5447 20.9575 12.104 21.1409 11.5891 21.1409Z" fill="white"/>
</g>
</svg>
