<svg width="23" height="24" viewBox="0 0 23 24" fill="none" xmlns="http://www.w3.org/2000/svg">
<mask id="mask0_261_6131" style="mask-type:alpha" maskUnits="userSpaceOnUse" x="0" y="0" width="23" height="24">
<rect x="0.356201" y="0.546875" width="22.4658" height="22.4658" fill="#D9D9D9"/>
</mask>
<g mask="url(#mask0_261_6131)">
<path d="M10.653 19.2682C10.3878 19.2682 10.1655 19.1785 9.98607 18.9991C9.80666 18.8197 9.71695 18.5973 9.71695 18.3321V12.7157L4.28772 5.78873C4.05371 5.47671 4.0186 5.14908 4.18242 4.80586C4.34623 4.46263 4.63095 4.29102 5.03658 4.29102H18.1416C18.5472 4.29102 18.832 4.46263 18.9958 4.80586C19.1596 5.14908 19.1245 5.47671 18.8905 5.78873L13.4612 12.7157V18.3321C13.4612 18.5973 13.3715 18.8197 13.1921 18.9991C13.0127 19.1785 12.7904 19.2682 12.5252 19.2682H10.653ZM11.5891 12.0604L16.2227 6.16316H6.95553L11.5891 12.0604Z" fill="white"/>
</g>
</svg>
