<svg width="45" height="45" viewBox="0 0 45 45" fill="none" xmlns="http://www.w3.org/2000/svg">
<mask id="mask0_261_6028" style="mask-type:alpha" maskUnits="userSpaceOnUse" x="0" y="0" width="45" height="45">
<rect width="45" height="45" fill="#D9D9D9"/>
</mask>
<g mask="url(#mask0_261_6028)">
<path d="M22.3125 41.25L30.8438 18.75H34.7813L43.3125 41.25H39.375L37.3594 35.5313H28.2656L26.25 41.25H22.3125ZM7.5 35.625L4.875 33L14.3438 23.5312C13.25 22.4375 12.2578 21.1875 11.3672 19.7812C10.4766 18.375 9.65625 16.7812 8.90625 15H12.8438C13.4688 16.2188 14.0938 17.2813 14.7188 18.1875C15.3438 19.0938 16.0938 20 16.9688 20.9063C18 19.875 19.0703 18.4297 20.1797 16.5703C21.2891 14.7109 22.125 12.9375 22.6875 11.25H1.875V7.5H15V3.75H18.75V7.5H31.875V11.25H26.4375C25.7812 13.5 24.7969 15.8125 23.4844 18.1875C22.1719 20.5625 20.875 22.375 19.5938 23.625L24.0938 28.2188L22.6875 32.0625L16.9688 26.2031L7.5 35.625ZM29.4375 32.25H36.1875L32.8125 22.6875L29.4375 32.25Z" fill="#D3AA94"/>
</g>
</svg>
