<svg width="23" height="24" viewBox="0 0 23 24" fill="none" xmlns="http://www.w3.org/2000/svg">
<mask id="mask0_261_6209" style="mask-type:alpha" maskUnits="userSpaceOnUse" x="0" y="0" width="23" height="24">
<rect x="0.356201" y="0.546875" width="22.4658" height="22.4658" fill="#D9D9D9"/>
</mask>
<g mask="url(#mask0_261_6209)">
<path d="M7.37673 15.993L13.9292 14.1208L15.8014 7.56832L9.24888 9.44047L7.37673 15.993ZM11.5891 13.1848C11.199 13.1848 10.8675 13.0483 10.5945 12.7752C10.3215 12.5022 10.185 12.1707 10.185 11.7807C10.185 11.3906 10.3215 11.0591 10.5945 10.7861C10.8675 10.5131 11.199 10.3765 11.5891 10.3765C11.9791 10.3765 12.3106 10.5131 12.5836 10.7861C12.8567 11.0591 12.9932 11.3906 12.9932 11.7807C12.9932 12.1707 12.8567 12.5022 12.5836 12.7752C12.3106 13.0483 11.9791 13.1848 11.5891 13.1848ZM11.5891 21.1414C10.2942 21.1414 9.07727 20.8957 7.93838 20.4042C6.79949 19.9128 5.80881 19.2458 4.96635 18.4034C4.12388 17.5609 3.45693 16.5702 2.96549 15.4313C2.47405 14.2924 2.22833 13.0756 2.22833 11.7807C2.22833 10.4858 2.47405 9.26886 2.96549 8.12997C3.45693 6.99108 4.12388 6.0004 4.96635 5.15794C5.80881 4.31547 6.79949 3.64852 7.93838 3.15708C9.07727 2.66564 10.2942 2.41992 11.5891 2.41992C12.884 2.41992 14.1009 2.66564 15.2397 3.15708C16.3786 3.64852 17.3693 4.31547 18.2118 5.15794C19.0542 6.0004 19.7212 6.99108 20.2126 8.12997C20.7041 9.26886 20.9498 10.4858 20.9498 11.7807C20.9498 13.0756 20.7041 14.2924 20.2126 15.4313C19.7212 16.5702 19.0542 17.5609 18.2118 18.4034C17.3693 19.2458 16.3786 19.9128 15.2397 20.4042C14.1009 20.8957 12.884 21.1414 11.5891 21.1414ZM11.5891 19.2692C13.664 19.2692 15.4309 18.5399 16.8896 17.0812C18.3483 15.6225 19.0776 13.8556 19.0776 11.7807C19.0776 9.70569 18.3483 7.93885 16.8896 6.48014C15.4309 5.02143 13.664 4.29207 11.5891 4.29207C9.5141 4.29207 7.74726 5.02143 6.28855 6.48014C4.82984 7.93885 4.10048 9.70569 4.10048 11.7807C4.10048 13.8556 4.82984 15.6225 6.28855 17.0812C7.74726 18.5399 9.5141 19.2692 11.5891 19.2692Z" fill="white"/>
</g>
</svg>
