<svg width="45" height="45" viewBox="0 0 45 45" fill="none" xmlns="http://www.w3.org/2000/svg">
<mask id="mask0_275_6193" style="mask-type:alpha" maskUnits="userSpaceOnUse" x="0" y="0" width="45" height="45">
<rect width="45" height="45" fill="#D9D9D9"/>
</mask>
<g mask="url(#mask0_275_6193)">
<path d="M14.0625 30.9375L27.1875 27.1875L30.9375 14.0625L17.8125 17.8125L14.0625 30.9375ZM22.5 25.3125C21.7188 25.3125 21.0547 25.0391 20.5078 24.4922C19.9609 23.9453 19.6875 23.2812 19.6875 22.5C19.6875 21.7188 19.9609 21.0547 20.5078 20.5078C21.0547 19.9609 21.7188 19.6875 22.5 19.6875C23.2812 19.6875 23.9453 19.9609 24.4922 20.5078C25.0391 21.0547 25.3125 21.7188 25.3125 22.5C25.3125 23.2812 25.0391 23.9453 24.4922 24.4922C23.9453 25.0391 23.2812 25.3125 22.5 25.3125ZM22.5 41.25C19.9062 41.25 17.4688 40.7578 15.1875 39.7734C12.9062 38.7891 10.9219 37.4531 9.23438 35.7656C7.54687 34.0781 6.21094 32.0938 5.22656 29.8125C4.24219 27.5313 3.75 25.0938 3.75 22.5C3.75 19.9062 4.24219 17.4688 5.22656 15.1875C6.21094 12.9062 7.54687 10.9219 9.23438 9.23438C10.9219 7.54687 12.9062 6.21094 15.1875 5.22656C17.4688 4.24219 19.9062 3.75 22.5 3.75C25.0938 3.75 27.5313 4.24219 29.8125 5.22656C32.0938 6.21094 34.0781 7.54687 35.7656 9.23438C37.4531 10.9219 38.7891 12.9062 39.7734 15.1875C40.7578 17.4688 41.25 19.9062 41.25 22.5C41.25 25.0938 40.7578 27.5313 39.7734 29.8125C38.7891 32.0938 37.4531 34.0781 35.7656 35.7656C34.0781 37.4531 32.0938 38.7891 29.8125 39.7734C27.5313 40.7578 25.0938 41.25 22.5 41.25ZM22.5 37.5C26.6562 37.5 30.1953 36.0391 33.1172 33.1172C36.0391 30.1953 37.5 26.6562 37.5 22.5C37.5 18.3438 36.0391 14.8047 33.1172 11.8828C30.1953 8.96094 26.6562 7.5 22.5 7.5C18.3438 7.5 14.8047 8.96094 11.8828 11.8828C8.96094 14.8047 7.5 18.3438 7.5 22.5C7.5 26.6562 8.96094 30.1953 11.8828 33.1172C14.8047 36.0391 18.3438 37.5 22.5 37.5Z" fill="#D3AA94"/>
</g>
</svg>
