<svg width="23" height="24" viewBox="0 0 23 24" fill="none" xmlns="http://www.w3.org/2000/svg">
<mask id="mask0_261_6167" style="mask-type:alpha" maskUnits="userSpaceOnUse" x="0" y="0" width="23" height="24">
<rect x="0.356201" y="0.546875" width="22.4658" height="22.4658" fill="#D9D9D9"/>
</mask>
<g mask="url(#mask0_261_6167)">
<path d="M3.16443 10.8441V3.35547H10.653V10.8441H3.16443ZM5.03657 8.97191H8.78087V5.22761H5.03657V8.97191ZM3.16443 20.2048V12.7162H10.653V20.2048H3.16443ZM5.03657 18.3326H8.78087V14.5883H5.03657V18.3326ZM12.5252 10.8441V3.35547H20.0137V10.8441H12.5252ZM14.3973 8.97191H18.1416V5.22761H14.3973V8.97191ZM18.1416 20.2048V18.3326H20.0137V20.2048H18.1416ZM12.5252 14.5883V12.7162H14.3973V14.5883H12.5252ZM14.3973 16.4605V14.5883H16.2695V16.4605H14.3973ZM12.5252 18.3326V16.4605H14.3973V18.3326H12.5252ZM14.3973 20.2048V18.3326H16.2695V20.2048H14.3973ZM16.2695 18.3326V16.4605H18.1416V18.3326H16.2695ZM16.2695 14.5883V12.7162H18.1416V14.5883H16.2695ZM18.1416 16.4605V14.5883H20.0137V16.4605H18.1416Z" fill="white"/>
</g>
</svg>
