<svg width="201" height="66" viewBox="0 0 201 66" fill="none" xmlns="http://www.w3.org/2000/svg">
<rect width="201" height="66" rx="33" fill="black"/>
<path d="M74.3516 20.9072C74.3516 22.557 73.9027 23.8193 73.0049 24.6943C72.1117 25.5648 70.8242 26 69.1426 26H66.374V16.0059H69.4365C70.9906 16.0059 72.1982 16.4365 73.0596 17.2979C73.9209 18.1592 74.3516 19.3623 74.3516 20.9072ZM73.1211 20.9482C73.1211 19.6449 72.793 18.6628 72.1367 18.002C71.485 17.3411 70.5143 17.0107 69.2246 17.0107H67.5361V24.9951H68.9512C70.3366 24.9951 71.3779 24.6556 72.0752 23.9766C72.7725 23.293 73.1211 22.2835 73.1211 20.9482ZM82.8828 22.2471C82.8828 23.4684 82.5752 24.4232 81.96 25.1113C81.3447 25.7949 80.4948 26.1367 79.4102 26.1367C78.7402 26.1367 78.1455 25.9795 77.626 25.665C77.1064 25.3506 76.7054 24.8994 76.4229 24.3115C76.1403 23.7236 75.999 23.0355 75.999 22.2471C75.999 21.0257 76.3044 20.0755 76.915 19.3965C77.5257 18.7129 78.3734 18.3711 79.458 18.3711C80.5062 18.3711 81.3379 18.7197 81.9531 19.417C82.5729 20.1143 82.8828 21.0576 82.8828 22.2471ZM77.1748 22.2471C77.1748 23.2041 77.3662 23.9333 77.749 24.4346C78.1318 24.9359 78.6947 25.1865 79.4375 25.1865C80.1803 25.1865 80.7432 24.9382 81.126 24.4414C81.5133 23.9401 81.707 23.2087 81.707 22.2471C81.707 21.2946 81.5133 20.5723 81.126 20.0801C80.7432 19.5833 80.1758 19.335 79.4238 19.335C78.681 19.335 78.1204 19.5788 77.7422 20.0664C77.3639 20.554 77.1748 21.2809 77.1748 22.2471ZM90.9971 26L89.623 21.6045C89.5365 21.3356 89.3747 20.7249 89.1377 19.7725H89.083C88.9007 20.57 88.7412 21.1852 88.6045 21.6182L87.1895 26H85.877L83.833 18.5078H85.0225C85.5055 20.39 85.8724 21.8232 86.123 22.8076C86.3783 23.792 86.5241 24.4551 86.5605 24.7969H86.6152C86.6654 24.5371 86.7451 24.2021 86.8545 23.792C86.9684 23.3773 87.0664 23.0492 87.1484 22.8076L88.5225 18.5078H89.7529L91.0928 22.8076C91.348 23.5915 91.5212 24.25 91.6123 24.7832H91.667C91.6852 24.6191 91.7331 24.3662 91.8105 24.0244C91.8926 23.6826 92.3688 21.8438 93.2393 18.5078H94.415L92.3438 26H90.9971ZM100.902 26V21.1533C100.902 20.5426 100.763 20.0869 100.485 19.7861C100.207 19.4854 99.7721 19.335 99.1797 19.335C98.3958 19.335 97.8216 19.5469 97.457 19.9707C97.0924 20.3945 96.9102 21.0941 96.9102 22.0693V26H95.7754V18.5078H96.6982L96.8828 19.5332H96.9375C97.1699 19.1641 97.4958 18.8792 97.915 18.6787C98.3343 18.4736 98.8014 18.3711 99.3164 18.3711C100.219 18.3711 100.898 18.5898 101.354 19.0273C101.809 19.4603 102.037 20.1553 102.037 21.1123V26H100.902ZM105.51 26H104.375V15.3633H105.51V26ZM114.383 22.2471C114.383 23.4684 114.075 24.4232 113.46 25.1113C112.845 25.7949 111.995 26.1367 110.91 26.1367C110.24 26.1367 109.646 25.9795 109.126 25.665C108.606 25.3506 108.205 24.8994 107.923 24.3115C107.64 23.7236 107.499 23.0355 107.499 22.2471C107.499 21.0257 107.804 20.0755 108.415 19.3965C109.026 18.7129 109.873 18.3711 110.958 18.3711C112.006 18.3711 112.838 18.7197 113.453 19.417C114.073 20.1143 114.383 21.0576 114.383 22.2471ZM108.675 22.2471C108.675 23.2041 108.866 23.9333 109.249 24.4346C109.632 24.9359 110.195 25.1865 110.938 25.1865C111.68 25.1865 112.243 24.9382 112.626 24.4414C113.013 23.9401 113.207 23.2087 113.207 22.2471C113.207 21.2946 113.013 20.5723 112.626 20.0801C112.243 19.5833 111.676 19.335 110.924 19.335C110.181 19.335 109.62 19.5788 109.242 20.0664C108.864 20.554 108.675 21.2809 108.675 22.2471ZM120.986 26L120.761 24.9336H120.706C120.332 25.403 119.959 25.722 119.585 25.8906C119.216 26.0547 118.753 26.1367 118.197 26.1367C117.454 26.1367 116.871 25.9453 116.447 25.5625C116.028 25.1797 115.818 24.6351 115.818 23.9287C115.818 22.4157 117.028 21.6227 119.448 21.5498L120.72 21.5088V21.0439C120.72 20.4561 120.592 20.0231 120.337 19.7451C120.086 19.4626 119.683 19.3213 119.127 19.3213C118.503 19.3213 117.796 19.5127 117.008 19.8955L116.659 19.0273C117.028 18.8268 117.432 18.6696 117.869 18.5557C118.311 18.4417 118.753 18.3848 119.195 18.3848C120.089 18.3848 120.749 18.583 121.178 18.9795C121.611 19.376 121.827 20.0117 121.827 20.8867V26H120.986ZM118.423 25.2002C119.129 25.2002 119.683 25.0065 120.084 24.6191C120.49 24.2318 120.692 23.6895 120.692 22.9922V22.3154L119.558 22.3633C118.655 22.3952 118.004 22.5365 117.603 22.7871C117.206 23.0332 117.008 23.4183 117.008 23.9424C117.008 24.3525 117.131 24.6647 117.377 24.8789C117.628 25.0931 117.976 25.2002 118.423 25.2002ZM129.271 24.9951H129.21C128.686 25.7562 127.902 26.1367 126.858 26.1367C125.879 26.1367 125.115 25.8018 124.568 25.1318C124.026 24.4619 123.755 23.5094 123.755 22.2744C123.755 21.0394 124.028 20.0801 124.575 19.3965C125.122 18.7129 125.883 18.3711 126.858 18.3711C127.875 18.3711 128.654 18.7402 129.196 19.4785H129.285L129.237 18.9385L129.21 18.4121V15.3633H130.345V26H129.422L129.271 24.9951ZM127.002 25.1865C127.777 25.1865 128.337 24.9769 128.684 24.5576C129.035 24.1338 129.21 23.4525 129.21 22.5137V22.2744C129.21 21.2126 129.032 20.4561 128.677 20.0049C128.326 19.5492 127.763 19.3213 126.988 19.3213C126.323 19.3213 125.812 19.5811 125.457 20.1006C125.106 20.6156 124.931 21.3447 124.931 22.2881C124.931 23.2451 125.106 23.9674 125.457 24.4551C125.808 24.9427 126.323 25.1865 127.002 25.1865ZM142.861 22.2471C142.861 23.4684 142.554 24.4232 141.938 25.1113C141.323 25.7949 140.473 26.1367 139.389 26.1367C138.719 26.1367 138.124 25.9795 137.604 25.665C137.085 25.3506 136.684 24.8994 136.401 24.3115C136.119 23.7236 135.978 23.0355 135.978 22.2471C135.978 21.0257 136.283 20.0755 136.894 19.3965C137.504 18.7129 138.352 18.3711 139.437 18.3711C140.485 18.3711 141.316 18.7197 141.932 19.417C142.551 20.1143 142.861 21.0576 142.861 22.2471ZM137.153 22.2471C137.153 23.2041 137.345 23.9333 137.728 24.4346C138.11 24.9359 138.673 25.1865 139.416 25.1865C140.159 25.1865 140.722 24.9382 141.104 24.4414C141.492 23.9401 141.686 23.2087 141.686 22.2471C141.686 21.2946 141.492 20.5723 141.104 20.0801C140.722 19.5833 140.154 19.335 139.402 19.335C138.66 19.335 138.099 19.5788 137.721 20.0664C137.342 20.554 137.153 21.2809 137.153 22.2471ZM149.984 26V21.1533C149.984 20.5426 149.845 20.0869 149.567 19.7861C149.289 19.4854 148.854 19.335 148.262 19.335C147.478 19.335 146.904 19.5469 146.539 19.9707C146.174 20.3945 145.992 21.0941 145.992 22.0693V26H144.857V18.5078H145.78L145.965 19.5332H146.02C146.252 19.1641 146.578 18.8792 146.997 18.6787C147.416 18.4736 147.883 18.3711 148.398 18.3711C149.301 18.3711 149.98 18.5898 150.436 19.0273C150.891 19.4603 151.119 20.1553 151.119 21.1123V26H149.984ZM159.514 25.2002C159.714 25.2002 159.908 25.1865 160.095 25.1592C160.282 25.1273 160.43 25.0954 160.539 25.0635V25.9316C160.416 25.9909 160.234 26.0387 159.992 26.0752C159.755 26.1162 159.541 26.1367 159.35 26.1367C157.9 26.1367 157.176 25.3734 157.176 23.8467V19.3896H156.103V18.8428L157.176 18.3711L157.654 16.7715H158.311V18.5078H160.484V19.3896H158.311V23.7988C158.311 24.25 158.418 24.5964 158.632 24.8379C158.846 25.0794 159.14 25.2002 159.514 25.2002ZM167.17 26V21.1533C167.17 20.5426 167.031 20.0869 166.753 19.7861C166.475 19.4854 166.04 19.335 165.447 19.335C164.659 19.335 164.082 19.5492 163.718 19.9775C163.358 20.4059 163.178 21.1077 163.178 22.083V26H162.043V15.3633H163.178V18.583C163.178 18.9704 163.16 19.2917 163.123 19.5469H163.191C163.415 19.1868 163.731 18.9043 164.142 18.6992C164.556 18.4896 165.028 18.3848 165.557 18.3848C166.473 18.3848 167.159 18.6035 167.614 19.041C168.075 19.474 168.305 20.1644 168.305 21.1123V26H167.17ZM173.808 26.1367C172.7 26.1367 171.825 25.7995 171.183 25.125C170.545 24.4505 170.226 23.514 170.226 22.3154C170.226 21.1077 170.522 20.1484 171.114 19.4375C171.711 18.7266 172.511 18.3711 173.514 18.3711C174.452 18.3711 175.195 18.681 175.742 19.3008C176.289 19.916 176.562 20.7295 176.562 21.7412V22.459H171.401C171.424 23.3385 171.645 24.0062 172.064 24.4619C172.488 24.9176 173.083 25.1455 173.849 25.1455C174.655 25.1455 175.453 24.9769 176.241 24.6396V25.6514C175.84 25.8245 175.46 25.9476 175.1 26.0205C174.744 26.098 174.313 26.1367 173.808 26.1367ZM173.5 19.3213C172.898 19.3213 172.418 19.5173 172.058 19.9092C171.702 20.3011 171.493 20.8434 171.429 21.5361H175.346C175.346 20.8206 175.186 20.2738 174.867 19.8955C174.548 19.5127 174.092 19.3213 173.5 19.3213ZM74.8438 48L73.2441 43.9131H68.0938L66.5117 48H65L70.0801 35.0977H71.3369L76.3906 48H74.8438ZM72.7783 42.5684L71.2842 38.5869C71.0908 38.083 70.8916 37.4648 70.6865 36.7324C70.5576 37.2949 70.373 37.9131 70.1328 38.5869L68.6211 42.5684H72.7783ZM82.4199 48.1758C81.793 48.1758 81.2188 48.0615 80.6973 47.833C80.1816 47.5986 79.748 47.2412 79.3965 46.7607H79.291C79.3613 47.3232 79.3965 47.8564 79.3965 48.3604V52.3242H77.9375V38.3672H79.124L79.3262 39.6855H79.3965C79.7715 39.1582 80.208 38.7773 80.7061 38.543C81.2041 38.3086 81.7754 38.1914 82.4199 38.1914C83.6973 38.1914 84.6816 38.6279 85.373 39.501C86.0703 40.374 86.4189 41.5986 86.4189 43.1748C86.4189 44.7568 86.0645 45.9873 85.3555 46.8662C84.6523 47.7393 83.6738 48.1758 82.4199 48.1758ZM82.209 39.4307C81.2246 39.4307 80.5127 39.7031 80.0732 40.248C79.6338 40.793 79.4082 41.6602 79.3965 42.8496V43.1748C79.3965 44.5283 79.6221 45.498 80.0732 46.084C80.5244 46.6641 81.248 46.9541 82.2441 46.9541C83.0762 46.9541 83.7266 46.6172 84.1953 45.9434C84.6699 45.2695 84.9072 44.3408 84.9072 43.1572C84.9072 41.9561 84.6699 41.0361 84.1953 40.3975C83.7266 39.7529 83.0645 39.4307 82.209 39.4307ZM93.459 48.1758C92.832 48.1758 92.2578 48.0615 91.7363 47.833C91.2207 47.5986 90.7871 47.2412 90.4355 46.7607H90.3301C90.4004 47.3232 90.4355 47.8564 90.4355 48.3604V52.3242H88.9766V38.3672H90.1631L90.3652 39.6855H90.4355C90.8105 39.1582 91.2471 38.7773 91.7451 38.543C92.2432 38.3086 92.8145 38.1914 93.459 38.1914C94.7363 38.1914 95.7207 38.6279 96.4121 39.501C97.1094 40.374 97.458 41.5986 97.458 43.1748C97.458 44.7568 97.1035 45.9873 96.3945 46.8662C95.6914 47.7393 94.7129 48.1758 93.459 48.1758ZM93.248 39.4307C92.2637 39.4307 91.5518 39.7031 91.1123 40.248C90.6729 40.793 90.4473 41.6602 90.4355 42.8496V43.1748C90.4355 44.5283 90.6611 45.498 91.1123 46.084C91.5635 46.6641 92.2871 46.9541 93.2832 46.9541C94.1152 46.9541 94.7656 46.6172 95.2344 45.9434C95.709 45.2695 95.9463 44.3408 95.9463 43.1572C95.9463 41.9561 95.709 41.0361 95.2344 40.3975C94.7656 39.7529 94.1035 39.4307 93.248 39.4307ZM112.162 44.5811C112.162 45.7119 111.752 46.5938 110.932 47.2266C110.111 47.8594 108.998 48.1758 107.592 48.1758C106.068 48.1758 104.896 47.9795 104.076 47.5869V46.1455C104.604 46.3682 105.178 46.5439 105.799 46.6729C106.42 46.8018 107.035 46.8662 107.645 46.8662C108.641 46.8662 109.391 46.6787 109.895 46.3037C110.398 45.9229 110.65 45.3955 110.65 44.7217C110.65 44.2764 110.56 43.9131 110.378 43.6318C110.202 43.3447 109.903 43.0811 109.481 42.8408C109.065 42.6006 108.43 42.3281 107.574 42.0234C106.379 41.5957 105.523 41.0889 105.008 40.5029C104.498 39.917 104.243 39.1523 104.243 38.209C104.243 37.2188 104.615 36.4307 105.359 35.8447C106.104 35.2588 107.088 34.9658 108.312 34.9658C109.59 34.9658 110.765 35.2002 111.837 35.6689L111.371 36.9697C110.311 36.5244 109.279 36.3018 108.277 36.3018C107.486 36.3018 106.868 36.4717 106.423 36.8115C105.978 37.1514 105.755 37.623 105.755 38.2266C105.755 38.6719 105.837 39.0381 106.001 39.3252C106.165 39.6064 106.44 39.8672 106.827 40.1074C107.22 40.3418 107.817 40.6025 108.62 40.8896C109.968 41.3701 110.894 41.8857 111.397 42.4365C111.907 42.9873 112.162 43.7021 112.162 44.5811ZM117.682 46.9717C117.939 46.9717 118.188 46.9541 118.429 46.9189C118.669 46.8779 118.859 46.8369 119 46.7959V47.9121C118.842 47.9883 118.607 48.0498 118.297 48.0967C117.992 48.1494 117.717 48.1758 117.471 48.1758C115.607 48.1758 114.676 47.1943 114.676 45.2314V39.501H113.296V38.7979L114.676 38.1914L115.291 36.1348H116.135V38.3672H118.93V39.501H116.135V45.1699C116.135 45.75 116.272 46.1953 116.548 46.5059C116.823 46.8164 117.201 46.9717 117.682 46.9717ZM129.248 43.1748C129.248 44.7451 128.853 45.9727 128.062 46.8574C127.271 47.7363 126.178 48.1758 124.783 48.1758C123.922 48.1758 123.157 47.9736 122.489 47.5693C121.821 47.165 121.306 46.585 120.942 45.8291C120.579 45.0732 120.397 44.1885 120.397 43.1748C120.397 41.6045 120.79 40.3828 121.575 39.5098C122.36 38.6309 123.45 38.1914 124.845 38.1914C126.192 38.1914 127.262 38.6396 128.053 39.5361C128.85 40.4326 129.248 41.6455 129.248 43.1748ZM121.909 43.1748C121.909 44.4053 122.155 45.3428 122.647 45.9873C123.14 46.6318 123.863 46.9541 124.818 46.9541C125.773 46.9541 126.497 46.6348 126.989 45.9961C127.487 45.3516 127.736 44.4111 127.736 43.1748C127.736 41.9502 127.487 41.0215 126.989 40.3887C126.497 39.75 125.768 39.4307 124.801 39.4307C123.846 39.4307 123.125 39.7441 122.639 40.3711C122.152 40.998 121.909 41.9326 121.909 43.1748ZM136.209 38.1914C136.637 38.1914 137.021 38.2266 137.36 38.2969L137.158 39.6504C136.76 39.5625 136.408 39.5186 136.104 39.5186C135.324 39.5186 134.656 39.835 134.1 40.4678C133.549 41.1006 133.273 41.8887 133.273 42.832V48H131.814V38.3672H133.019L133.186 40.1514H133.256C133.613 39.5244 134.044 39.041 134.548 38.7012C135.052 38.3613 135.605 38.1914 136.209 38.1914ZM143.231 48.1758C141.808 48.1758 140.683 47.7422 139.856 46.875C139.036 46.0078 138.626 44.8037 138.626 43.2627C138.626 41.71 139.007 40.4766 139.769 39.5625C140.536 38.6484 141.564 38.1914 142.854 38.1914C144.061 38.1914 145.016 38.5898 145.719 39.3867C146.422 40.1777 146.773 41.2236 146.773 42.5244V43.4473H140.138C140.167 44.5781 140.451 45.4365 140.99 46.0225C141.535 46.6084 142.3 46.9014 143.284 46.9014C144.321 46.9014 145.347 46.6846 146.36 46.251V47.5518C145.845 47.7744 145.355 47.9326 144.893 48.0264C144.436 48.126 143.882 48.1758 143.231 48.1758ZM142.836 39.4131C142.062 39.4131 141.444 39.665 140.981 40.1689C140.524 40.6729 140.255 41.3701 140.173 42.2607H145.209C145.209 41.3408 145.004 40.6377 144.594 40.1514C144.184 39.6592 143.598 39.4131 142.836 39.4131Z" fill="white"/>
<path d="M43.6204 13C43.7065 13 43.7926 13 43.8836 13C44.0948 15.6093 43.0988 17.559 41.8884 18.9709C40.7007 20.373 39.0744 21.7329 36.4439 21.5266C36.2685 18.9546 37.266 17.1496 38.4748 15.7409C39.5959 14.4281 41.6512 13.26 43.6204 13Z" fill="white"/>
<path d="M51.5832 40.1587C51.5832 40.1847 51.5832 40.2074 51.5832 40.2318C50.8439 42.4707 49.7895 44.3895 48.5027 46.1702C47.328 47.7868 45.8885 49.9623 43.3182 49.9623C41.0972 49.9623 39.6219 48.5342 37.3457 48.4952C34.9378 48.4562 33.6137 49.6893 31.4121 49.9997C31.1603 49.9997 30.9085 49.9997 30.6615 49.9997C29.0449 49.7657 27.7403 48.4854 26.7898 47.3319C23.9871 43.9232 21.8214 39.5202 21.4184 33.8856C21.4184 33.3332 21.4184 32.7824 21.4184 32.23C21.589 28.1974 23.5484 24.9187 26.1529 23.3297C27.5274 22.4848 29.417 21.7651 31.521 22.0868C32.4227 22.2265 33.344 22.5352 34.1514 22.8407C34.9167 23.1347 35.8737 23.6563 36.7803 23.6287C37.3944 23.6108 38.0053 23.2907 38.6243 23.0649C40.4375 22.4101 42.215 21.6595 44.5578 22.0121C47.3735 22.4377 49.3719 23.6888 50.6067 25.619C48.2249 27.1348 46.3418 29.4192 46.6635 33.3202C46.9495 36.8637 49.0096 38.9369 51.5832 40.1587Z" fill="white"/>
</svg>
